<svg width="130" height="102" viewBox="0 0 130 102" fill="none" xmlns="http://www.w3.org/2000/svg">
<path fill-rule="evenodd" clip-rule="evenodd" d="M111.803 68.7356H109.275C102.147 86.6165 84.6758 99.2532 64.2529 99.2532C43.83 99.2532 26.3585 86.6165 19.2308 68.7356H16.7031C23.951 87.9459 42.5063 101.609 64.2529 101.609C85.9995 101.609 104.555 87.9459 111.803 68.7356ZM111.212 31.3793H108.65C101.163 14.2927 84.1022 2.35603 64.2529 2.35603C44.4037 2.35603 27.3424 14.2927 19.8558 31.3793H17.2942C24.9228 12.9586 43.0745 0 64.2529 0C85.4313 0 103.583 12.9586 111.212 31.3793Z" fill="#3AD3F5"/>
<path d="M23.0256 39.954C23.0256 39.954 21.9199 40.1034 21.9199 42.1954V58.6322C21.9199 60.7241 23.0256 60.8735 23.0256 60.8735H18.9911C18.9911 60.8735 20.0969 60.6942 20.0969 58.6322V42.7034C20.0969 42.0161 20.0072 41.5678 19.8279 41.2391C19.559 41.5678 19.1406 41.8069 18.3934 43.7494C18.2739 44.108 18.2739 44.0781 12.7153 58.6322C11.9383 60.6643 11.9682 60.8735 11.0118 60.8735C11.0118 60.8735 10.9222 60.6942 10.1452 58.6322C10.1452 58.6322 10.1452 58.6322 4.31758 43.3908C3.8693 42.2253 3.36126 41.6276 3.09229 41.2988C2.94287 41.6276 2.85321 42.0758 2.85321 42.7034V58.6322C2.85321 60.7241 3.95896 60.8735 3.95896 60.8735H0.880797C0.880797 60.8735 1.98654 60.6942 1.98654 58.6322V42.1954C1.98654 40.1333 0.880797 39.954 0.880797 39.954H5.93137C5.93137 39.954 4.8854 40.1034 5.66241 42.1954L11.9084 58.5425L18.1544 42.1954C18.9613 40.1034 17.8854 39.954 17.8854 39.954H23.0256ZM40.4262 60.8735C40.4262 60.8735 41.4722 60.6942 40.6653 58.6322L38.3641 52.9241H29.3687L27.0975 58.6322C26.2607 60.6942 27.3067 60.8735 27.3067 60.8735H24.2285C24.2285 60.8735 25.394 60.7241 26.2308 58.6322L33.6722 39.954H35.0469L42.4584 58.6322C43.2952 60.7241 44.4607 60.8735 44.4607 60.8735H40.4262ZM29.5779 52.4161H38.1549C38.1549 52.4161 33.9113 41.8069 33.8515 41.6574C33.7917 41.8069 29.5779 52.4161 29.5779 52.4161ZM45.65 39.954H49.6845C49.6845 39.954 48.5787 40.1034 48.5787 42.1954V58.6322C48.5787 60.7241 49.6845 60.8735 49.6845 60.8735H45.65C45.65 60.8735 46.7558 60.6942 46.7558 58.6322V42.1954C46.7558 40.1333 45.65 39.954 45.65 39.954ZM55.3269 39.954C55.3269 39.954 54.3108 40.1034 55.4465 42.1954L63.9936 57.6459V42.1954C63.9936 40.1333 62.858 39.954 62.858 39.954H65.966C65.966 39.954 64.8304 40.1034 64.8304 42.1954V60.8735H63.9637L53.6534 42.1954C53.4143 41.777 53.1752 41.4184 52.966 41.1494C52.8764 41.4184 52.8465 41.777 52.8465 42.1954V58.6322C52.8465 60.7241 53.9522 60.8735 53.9522 60.8735H50.8741C50.8741 60.8735 51.9798 60.6942 51.9798 58.6322V42.1954C51.9798 40.1333 50.8741 39.954 50.8741 39.954H55.3269ZM82.9085 55.0161C83.1177 49.5471 68.1453 51.4896 68.4143 45.1241C68.5338 41.8666 71.9706 39.954 76.1545 39.954C80.3384 39.954 83.3568 41.9563 83.3568 41.9563L81.6832 43.8988C81.6832 43.8988 80.697 40.6712 76.1246 40.6712C72.2993 40.6712 70.1476 42.3149 70.028 44.9149C69.8188 50.0253 85.3292 48.3218 85.0602 54.9862C84.9407 57.5264 83.1177 60.8735 75.8556 60.8735C69.3108 60.8735 67.1591 55.7333 67.1591 55.7333L69.4005 54.0896C69.4005 54.0896 70.8051 59.977 75.9154 59.977C80.9959 59.977 82.8188 57.0184 82.9085 55.0161ZM85.0493 39.954H100.918V43.3609C100.918 43.3609 100.141 40.8804 95.8079 40.8804H94.0745C93.955 41.1793 93.8653 41.6276 93.8653 42.1954V58.6322C93.8653 60.7241 94.9711 60.8735 94.9711 60.8735H90.9366C90.9366 60.8735 92.0424 60.6942 92.0424 58.6322V42.1954C92.0424 41.6276 91.9826 41.1793 91.8332 40.8804H90.1297C85.7964 40.8804 85.0493 43.3609 85.0493 43.3609V39.954ZM112.95 60.8735C112.95 60.8735 113.996 60.6942 113.189 58.6322L110.888 52.9241H101.893L99.6213 58.6322C98.7845 60.6942 99.8304 60.8735 99.8304 60.8735H96.7523C96.7523 60.8735 97.9178 60.7241 98.7546 58.6322L106.196 39.954H107.571L114.982 58.6322C115.819 60.7241 116.984 60.8735 116.984 60.8735H112.95ZM102.102 52.4161H110.679C110.679 52.4161 106.435 41.8069 106.375 41.6574C106.316 41.8069 102.102 52.4161 102.102 52.4161ZM118.831 51.2207L113.213 42.1954C111.898 40.1034 110.703 39.954 110.703 39.954H114.737C114.737 39.954 113.751 40.1333 115.006 42.1954L120.027 50.2643L125.615 42.1954C127.02 40.1333 126.034 39.954 126.034 39.954H129.112C129.112 39.954 127.886 40.1034 126.452 42.1954L120.624 50.623V58.6322C120.654 60.7241 121.76 60.8735 121.76 60.8735H117.726C117.726 60.8735 118.831 60.6942 118.831 58.6322V51.2207Z" fill="white"/>
</svg>
