<svg width="88" height="68" viewBox="0 0 88 68" fill="none" xmlns="http://www.w3.org/2000/svg">
<path fill-rule="evenodd" clip-rule="evenodd" d="M75.3218 46H73.6302C68.8601 57.9664 57.1677 66.4233 43.5 66.4233C29.8324 66.4233 18.1399 57.9664 13.3698 46H11.6782C16.5287 58.8561 28.9465 68 43.5 68C58.0535 68 70.4713 58.8561 75.3218 46ZM74.9262 21H73.2119C68.2017 9.56511 56.7837 1.57673 43.5 1.57673C30.2163 1.57673 18.7983 9.56511 13.7881 21H12.0738C17.1791 8.67231 29.3268 0 43.5 0C57.6732 0 69.821 8.67231 74.9262 21Z" fill="#3AD3F5"/>
<path d="M15.9095 27C15.9095 27 15.1695 27.1 15.1695 28.5V39.5C15.1695 40.9 15.9095 41 15.9095 41H13.2095C13.2095 41 13.9495 40.88 13.9495 39.5V28.84C13.9495 28.38 13.8895 28.08 13.7695 27.86C13.5895 28.08 13.3095 28.24 12.8095 29.54C12.7295 29.78 12.7295 29.76 9.00945 39.5C8.48945 40.86 8.50945 41 7.86945 41C7.86945 41 7.80945 40.88 7.28945 39.5C7.28945 39.5 7.28945 39.5 3.38945 29.3C3.08945 28.52 2.74945 28.12 2.56945 27.9C2.46945 28.12 2.40945 28.42 2.40945 28.84V39.5C2.40945 40.9 3.14945 41 3.14945 41H1.08945C1.08945 41 1.82945 40.88 1.82945 39.5V28.5C1.82945 27.12 1.08945 27 1.08945 27H4.46945C4.46945 27 3.76945 27.1 4.28945 28.5L8.46945 39.44L12.6495 28.5C13.1895 27.1 12.4695 27 12.4695 27H15.9095ZM27.5545 41C27.5545 41 28.2545 40.88 27.7145 39.5L26.1745 35.68H20.1545L18.6345 39.5C18.0745 40.88 18.7745 41 18.7745 41H16.7145C16.7145 41 17.4945 40.9 18.0545 39.5L23.0345 27H23.9545L28.9145 39.5C29.4745 40.9 30.2545 41 30.2545 41H27.5545ZM20.2945 35.34H26.0345C26.0345 35.34 23.1945 28.24 23.1545 28.14C23.1145 28.24 20.2945 35.34 20.2945 35.34ZM31.0504 27H33.7504C33.7504 27 33.0104 27.1 33.0104 28.5V39.5C33.0104 40.9 33.7504 41 33.7504 41H31.0504C31.0504 41 31.7904 40.88 31.7904 39.5V28.5C31.7904 27.12 31.0504 27 31.0504 27ZM37.5265 27C37.5265 27 36.8465 27.1 37.6065 28.5L43.3265 38.84V28.5C43.3265 27.12 42.5665 27 42.5665 27H44.6465C44.6465 27 43.8865 27.1 43.8865 28.5V41H43.3065L36.4065 28.5C36.2465 28.22 36.0865 27.98 35.9465 27.8C35.8865 27.98 35.8665 28.22 35.8665 28.5V39.5C35.8665 40.9 36.6065 41 36.6065 41H34.5465C34.5465 41 35.2865 40.88 35.2865 39.5V28.5C35.2865 27.12 34.5465 27 34.5465 27H37.5265ZM55.9849 37.08C56.1249 33.42 46.1049 34.72 46.2849 30.46C46.3649 28.28 48.6649 27 51.4649 27C54.2649 27 56.2849 28.34 56.2849 28.34L55.1649 29.64C55.1649 29.64 54.5049 27.48 51.4449 27.48C48.8849 27.48 47.4449 28.58 47.3649 30.32C47.2249 33.74 57.6049 32.6 57.4249 37.06C57.3449 38.76 56.1249 41 51.2649 41C46.8849 41 45.4449 37.56 45.4449 37.56L46.9449 36.46C46.9449 36.46 47.8849 40.4 51.3049 40.4C54.7049 40.4 55.9249 38.42 55.9849 37.08ZM57.4176 27H68.0376V29.28C68.0376 29.28 67.5176 27.62 64.6176 27.62H63.4576C63.3776 27.82 63.3176 28.12 63.3176 28.5V39.5C63.3176 40.9 64.0576 41 64.0576 41H61.3576C61.3576 41 62.0976 40.88 62.0976 39.5V28.5C62.0976 28.12 62.0576 27.82 61.9576 27.62H60.8176C57.9176 27.62 57.4176 29.28 57.4176 29.28V27ZM76.0896 41C76.0896 41 76.7896 40.88 76.2496 39.5L74.7096 35.68H68.6896L67.1696 39.5C66.6096 40.88 67.3096 41 67.3096 41H65.2496C65.2496 41 66.0296 40.9 66.5896 39.5L71.5696 27H72.4896L77.4496 39.5C78.0096 40.9 78.7896 41 78.7896 41H76.0896ZM68.8296 35.34H74.5696C74.5696 35.34 71.7296 28.24 71.6896 28.14C71.6496 28.24 68.8296 35.34 68.8296 35.34ZM80.0255 34.54L76.2655 28.5C75.3855 27.1 74.5855 27 74.5855 27H77.2855C77.2855 27 76.6255 27.12 77.4655 28.5L80.8255 33.9L84.5655 28.5C85.5055 27.12 84.8455 27 84.8455 27H86.9055C86.9055 27 86.0855 27.1 85.1255 28.5L81.2255 34.14V39.5C81.2455 40.9 81.9855 41 81.9855 41H79.2855C79.2855 41 80.0255 40.88 80.0255 39.5V34.54Z" fill="#18191C"/>
</svg>
